<svg width="25" height="27" viewBox="0 0 25 27" fill="none" xmlns="http://www.w3.org/2000/svg">
  <g clipPath="url(#clip0_1152_4)">
    <path d="M16.6667 12.4018C18.3959 12.4018 19.7813 10.9305 19.7813 9.10788C19.7813 7.28525 18.3959 5.81396 16.6667 5.81396C14.9376 5.81396 13.5417 7.28525 13.5417 9.10788C13.5417 10.9305 14.9376 12.4018 16.6667 12.4018ZM8.33341 12.4018C10.0626 12.4018 11.448 10.9305 11.448 9.10788C11.448 7.28525 10.0626 5.81396 8.33341 5.81396C6.60425 5.81396 5.20841 7.28525 5.20841 9.10788C5.20841 10.9305 6.60425 12.4018 8.33341 12.4018ZM8.33341 14.5977C5.90633 14.5977 1.04175 15.8824 1.04175 18.4407V20.0876C1.04175 20.6915 1.5105 21.1856 2.08341 21.1856H14.5834C15.1563 21.1856 15.6251 20.6915 15.6251 20.0876V18.4407C15.6251 15.8824 10.7605 14.5977 8.33341 14.5977ZM16.6667 14.5977C16.3647 14.5977 16.0209 14.6197 15.6563 14.6526C15.6772 14.6636 15.6876 14.6856 15.698 14.6966C16.8855 15.6079 17.7084 16.8266 17.7084 18.4407V20.0876C17.7084 20.4719 17.6355 20.8452 17.5209 21.1856H22.9167C23.4897 21.1856 23.9584 20.6915 23.9584 20.0876V18.4407C23.9584 15.8824 19.0938 14.5977 16.6667 14.5977Z" fill="#76808C"/>
  </g>
  <defs>
    <clipPath id="clip0_1152_4">
      <rect width="25" height="26.3514" fill="white" transform="translate(0 0.324219)"/>
    </clipPath>
  </defs>
</svg>
