<svg width="343" height="22" viewBox="0 0 343 22" fill="none" xmlns="http://www.w3.org/2000/svg">
  <path d="M10.4581 0C4.9453 0 0.429149 4.25069 0 9.65266L5.62473 11.9782C6.10132 11.6523 6.67708 11.4613 7.29649 11.4613C7.352 11.4613 7.40727 11.4632 7.46207 11.4663L9.96343 7.84069C9.96343 7.82337 9.96319 7.80653 9.96319 7.78945C9.96319 5.60717 11.7384 3.83174 13.9209 3.83174C16.1032 3.83174 17.8784 5.60717 17.8784 7.78945C17.8784 9.97173 16.1032 11.7474 13.9209 11.7474C13.8908 11.7474 13.8609 11.7467 13.831 11.746L10.2635 14.2915C10.2654 14.3377 10.2671 14.3849 10.2671 14.4319C10.2671 16.0702 8.93456 17.4025 7.29649 17.4025C5.85863 17.4025 4.65635 16.3762 4.38401 15.0171L0.361539 13.3542C1.607 17.759 5.65391 20.9885 10.4581 20.9885C16.2541 20.9885 20.9524 16.2899 20.9524 10.4946C20.9524 4.69834 16.2538 0 10.4581 0Z" fill="#F3F3F3"/>
  <path d="M6.57622 15.9237L5.28711 15.3911C5.51556 15.8668 5.91079 16.2651 6.43554 16.4838C7.56997 16.9564 8.87782 16.4181 9.35062 15.2827C9.57955 14.7337 9.58097 14.1276 9.35394 13.5772C9.12739 13.0266 8.6999 12.5973 8.15024 12.3681C7.60485 12.1411 7.02055 12.1494 6.50718 12.3432L7.83876 12.8938C8.67547 13.2425 9.07117 14.2033 8.72244 15.04C8.37442 15.877 7.41293 16.2727 6.57622 15.9237Z" fill="#F3F3F3"/>
  <path d="M16.5578 7.78939C16.5578 6.33541 15.375 5.15234 13.9207 5.15234C12.4668 5.15234 11.2837 6.33541 11.2837 7.78939C11.2837 9.24361 12.4668 10.4262 13.9207 10.4262C15.375 10.426 16.5578 9.24338 16.5578 7.78939ZM11.9441 7.78489C11.9441 6.69078 12.8311 5.80401 13.9252 5.80401C15.0194 5.80401 15.9064 6.69078 15.9064 7.78489C15.9064 8.87899 15.0194 9.76576 13.9252 9.76576C12.8311 9.76576 11.9441 8.87875 11.9441 7.78489Z" fill="#F3F3F3"/>
  <path d="M37.2703 6.28698L36.318 7.96092C35.5844 7.44846 34.5904 7.14002 33.7225 7.14002C32.7307 7.14002 32.117 7.55063 32.117 8.28607C32.117 9.17959 33.2072 9.38746 34.8275 9.96901C36.5692 10.5849 37.5704 11.3088 37.5704 12.904C37.5704 15.0866 35.854 16.3123 33.3871 16.3123C32.1848 16.3123 30.7345 16.0019 29.6196 15.3237L30.3143 13.4679C31.22 13.9463 32.3034 14.23 33.2692 14.23C34.5711 14.23 35.1899 13.7497 35.1899 13.0396C35.1899 12.2271 34.2463 11.9829 32.723 11.4784C30.9871 10.8988 29.7841 10.1383 29.7841 8.37282C29.7841 6.38176 31.3787 5.23828 33.6731 5.23828C35.2721 5.23828 36.5573 5.74496 37.2703 6.28698Z" fill="#F3F3F3"/>
  <path d="M44.7143 7.16154V15.9454H42.472V7.16154H39.2173V5.23828H47.9594V7.16154H44.7143Z" fill="#F3F3F3"/>
  <path d="M52.6865 7.15576V9.56835H56.9777V11.4916H52.6865V14.0045H57.6652V15.9454H50.4448V5.23828H57.6652V7.15576H52.6865Z" fill="#F3F3F3"/>
  <path d="M62.6697 13.8663L61.9609 15.9454H59.6104L63.6249 5.23828H65.882L70.01 15.9451H67.58L66.8558 13.866L62.6697 13.8663ZM64.7408 7.79224L63.2786 12.0793H66.2332L64.7408 7.79224Z" fill="#F3F3F3"/>
  <text fill="white" xml:space="preserve" style="white-space: pre" font-family="Barlow" font-size="15.4" font-weight="bold" letter-spacing="0em">
    <tspan x="90" y="16.16">Lite</tspan>
  </text>
  <path d="M81.5178 9.37686L78.5876 15.6334H77.3223L74.4397 9.43277V15.9454H72.2925V5.23828H74.4349L78.0334 12.9673L81.504 5.23828H83.665V15.9454H81.5181L81.5178 9.37686Z" fill="#F3F3F3"/>
  <path d="M87.9999 5.98366C87.9999 6.90384 87.3104 7.47735 86.519 7.47735C85.7248 7.47735 85.0337 6.90384 85.0337 5.98366C85.0337 5.06379 85.7248 4.49414 86.519 4.49414C87.3107 4.49414 87.9999 5.06379 87.9999 5.98366ZM85.2827 5.98366C85.2827 6.75348 85.8373 7.23702 86.519 7.23702C87.1983 7.23702 87.7505 6.75348 87.7505 5.98366C87.7505 5.21159 87.1983 4.73543 86.519 4.73543C85.8392 4.73543 85.2827 5.21737 85.2827 5.98366ZM86.5396 5.22251C86.9235 5.22251 87.0527 5.42557 87.0527 5.64501C87.0527 5.84614 86.9335 5.98109 86.7883 6.04984L87.1324 6.69468H86.8506L86.5605 6.1231H86.2614V6.69468H86.0268V5.22251H86.5396ZM86.2636 5.90751H86.5251C86.6945 5.90751 86.7944 5.80116 86.7944 5.6675C86.7944 5.53256 86.7227 5.44581 86.5245 5.44581H86.2633V5.90751H86.2636Z" fill="#F3F3F3"/>
  <text fill="#66C0F4" xml:space="preserve" style="white-space: pre" font-family="Barlow" font-size="18" font-weight="bold" letter-spacing="0em">
    <tspan x="160" y="18.2">상점</tspan>
  </text>
  <text fill="#F3F3F3" xml:space="preserve" style="white-space: pre" font-family="Barlow" font-size="18" font-weight="bold" letter-spacing="0em">
    <tspan x="257" y="18.2">라이브러리</tspan>
  </text>
</svg>
